<?xml version="1.0" standalone="no"?>
<!DOCTYPE svg PUBLIC "-//W3C//DTD SVG 20010904//EN"
 "http://www.w3.org/TR/2001/REC-SVG-20010904/DTD/svg10.dtd">
<svg version="1.0" xmlns="http://www.w3.org/2000/svg"
 width="1024.000000pt" height="1024.000000pt" viewBox="0 0 1024.000000 1024.000000"
 preserveAspectRatio="xMidYMid meet">

<g transform="translate(0.000000,1024.000000) scale(0.100000,-0.100000)"
fill="#000000" stroke="none">
<path d="M4853 7989 c-139 -16 -290 -61 -416 -125 -103 -51 -153 -89 -242
-178 -278 -279 -424 -781 -425 -1453 l0 -133 -300 0 -300 0 0 -161 0 -161 298
7 299 8 6 -843 c14 -1788 10 -1926 -68 -2080 -57 -113 -133 -164 -271 -183
l-84 -11 0 -108 0 -108 740 0 740 0 0 151 0 151 -97 -6 c-297 -17 -353 -18
-353 -5 0 8 5 52 11 99 7 58 10 539 9 1516 l-1 1431 178 7 c98 3 319 9 491 12
l312 7 0 138 0 139 -491 0 -490 0 4 498 c4 457 6 505 25 592 76 346 215 510
462 541 136 17 257 -10 354 -78 l45 -32 -16 -43 c-9 -26 -16 -78 -17 -128 -1
-74 3 -92 27 -142 35 -72 110 -141 171 -158 28 -7 77 -11 124 -8 178 10 282
129 282 323 0 186 -96 321 -300 425 -66 34 -202 78 -293 95 -86 16 -292 18
-414 4z"/>
<path d="M6219 3262 c-94 -38 -199 -133 -244 -221 -53 -105 -64 -271 -26 -393
39 -123 143 -235 259 -278 47 -18 74 -21 152 -18 120 4 187 34 275 122 96 97
134 195 135 341 0 195 -89 349 -252 432 -46 24 -66 28 -153 30 -78 2 -110 -1
-146 -15z"/>
</g>
</svg>
