<?xml version="1.0" standalone="no"?>
<!DOCTYPE svg PUBLIC "-//W3C//DTD SVG 20010904//EN"
 "http://www.w3.org/TR/2001/REC-SVG-20010904/DTD/svg10.dtd">
<svg version="1.0" xmlns="http://www.w3.org/2000/svg"
 width="1024.000000pt" height="1024.000000pt" viewBox="0 0 1024.000000 1024.000000"
 preserveAspectRatio="xMidYMid meet">

<g transform="translate(0.000000,1024.000000) scale(0.100000,-0.100000)"
fill="#000000" stroke="none">
<path d="M0 5120 l0 -5120 5120 0 5120 0 0 5120 0 5120 -5120 0 -5120 0 0
-5120z m5225 2869 c172 -24 388 -113 492 -204 104 -91 148 -200 141 -349 -5
-101 -23 -148 -84 -215 -51 -57 -121 -84 -219 -85 -133 -2 -217 51 -274 174
-30 65 -35 160 -12 252 17 67 14 72 -60 112 -71 39 -141 56 -235 56 -166 0
-262 -35 -357 -132 -66 -67 -108 -142 -152 -271 -54 -161 -57 -205 -62 -729
l-5 -488 491 0 491 0 0 -144 0 -143 -177 -7 c-98 -3 -319 -9 -492 -12 l-314
-7 6 -1329 c5 -1202 1 -1553 -19 -1685 l-6 -44 188 7 c104 4 207 8 229 8 l40
1 3 -147 3 -148 -746 0 -745 0 0 109 0 108 68 6 c94 9 153 32 206 78 53 47
111 156 126 239 26 133 30 441 24 1598 l-7 1192 -299 -6 -299 -7 3 164 3 164
296 3 296 2 6 223 c12 450 73 759 205 1037 150 312 369 495 698 581 174 46
389 61 549 38z m1288 -4741 c111 -52 209 -173 243 -302 20 -75 18 -212 -5
-285 -27 -85 -61 -140 -130 -203 -71 -67 -128 -96 -214 -110 -132 -22 -259 23
-354 126 -121 131 -160 307 -107 492 36 128 154 251 284 298 72 26 210 18 283
-16z"/>
</g>
</svg>
